# xmcd
#
# Track frame offsets:
#	150
#	12130
#	31527
#	51052
#	72777
#	86580
#	102517
#	122940
#	135320
#	158717
#	170512
#	193057
#	212760
#	230787
#	247855
#	262180
#	276542
#	290965
#
# Disc length: 4192 seconds
#
# Revision: 4
# Processed by: cddbd v1.5.2PL0 Copyright (c) Steve Scherf et al.
# Submitted via: audiograbber 1.83.01
#
DISCID=0a105e12
DTITLE=Sampler Klezmer / Doyres (Generations)
DYEAR=
DGENRE=Klezmer
TTITLE0=Klezmorim, The - Bucharest
TTITLE1=Feldman, Zev & Andy Statman - Gypsy hora and sirba
TTITLE2=Tarras, Dave - Opshpiel far di Makhutonim
TTITLE3=Statman Klezmer Orchestra, The Andy - Another glass of wine
TTITLE4=Kapelye - Moldavian hora
TTITLE5=Rubin, Joel & The Epstein Brothers Orchestra - No name sirba
TTITLE6=Klezmer Plus! - Husid'l Medley
TTITLE7=Klezmer Conservatory Band - Dovid, shpil es nokh amol
TTITLE8=Rubin Klezmer Band, Joel - Ot Azoy!
TTITLE9=New York Klezmer Ensemble - A Doinele
TTITLE10=Epstein Brothers Orchestra, The - Hora and sirba
TTITLE11=Berlin, Musa - Meron arabesque
TTITLE12=Rubin & Horowitz - Shabes Nign
TTITLE13=Muszikás - Greeting of the bride
TTITLE14=Ukrainian Brass Band From Vinnitsa, The - Freilik
TTITLE15=Chicago Klezmer Ensemble - Oy, di Kinderlakh!
TTITLE16=Kapelye - Unzer Toyrele
TTITLE17=New Shtetl Band - Oy Tate - Serbe romanya - Lebn zol Palestina
EXTD=
EXTT0=
EXTT1=
EXTT2=
EXTT3=
EXTT4=
EXTT5=
EXTT6=
EXTT7=
EXTT8=
EXTT9=
EXTT10=
EXTT11=
EXTT12=
EXTT13=
EXTT14=
EXTT15=
EXTT16=
EXTT17=
PLAYORDER=
